<?xml version="1.0" encoding="UTF-8"?>
<svg width="126px" height="30px" viewBox="0 0 126 30" version="1.1" xmlns="http://www.w3.org/2000/svg" xmlns:xlink="http://www.w3.org/1999/xlink">
    <!-- Generator: Sketch 49.3 (51167) - http://www.bohemiancoding.com/sketch -->
    <title>Artboard</title>
    <desc>Created with Sketch.</desc>
    <defs></defs>
    <g id="Artboard" stroke="none" stroke-width="1" fill="none" fill-rule="evenodd">
        <path d="M19.2578318,6.32362255 C19.5091384,5.7701049 19.6874823,5.49335022 19.7928689,5.49335022 L19.8536686,5.49335022 C19.9752685,5.49335022 20.2225181,5.62170022 20.5954246,5.87840405 C20.9683311,6.13510789 21.1547815,6.37576413 21.1547815,6.60037999 C21.1547815,6.91323779 20.1171442,9.33584392 18.0418384,13.8682711 C15.9665326,18.4006982 14.7768976,20.941627 14.4728978,21.4911336 C14.1688979,22.0406403 13.9601545,22.407641 13.8466612,22.5921469 C13.7331679,22.7766528 13.5791436,22.9812106 13.3845837,23.2058265 C13.0359972,23.6309922 12.6022972,23.8435719 12.0834707,23.8435719 C11.8726975,23.8435719 11.686247,23.869643 11.5241138,23.9217859 C11.3619805,23.9739289 11.264702,24 11.2322754,24 C10.9728621,24 10.8431575,23.9398359 10.8431575,23.819506 C10.8431575,23.79544 10.8776103,23.6971721 10.9465169,23.5246992 C11.0154235,23.3522263 11.9415959,21.4049162 13.7250618,17.6827106 C11.819996,17.6105126 10.1459951,17.5543595 8.70300907,17.5142495 C7.31676966,19.2389784 6.0602557,21.0439002 4.93342951,22.929069 C4.79561624,23.1937949 4.66591157,23.3803034 4.54431162,23.4886004 C4.42271168,23.5968973 4.25652757,23.651045 4.04575433,23.651045 C3.83498108,23.651045 3.60799792,23.5447551 3.36479802,23.3321723 C3.12159812,23.1195894 3,22.8729168 3,22.5921469 C3,21.7899474 4.04574387,20.0732663 6.13726298,17.4420519 C5.15635673,17.4420519 4.53417966,17.4661176 4.27071311,17.5142495 C4.00724655,17.5623815 3.83903581,17.5864471 3.76607585,17.5864471 C3.54719594,17.5864471 3.43775763,17.4039495 3.43775763,17.0389487 C3.43775763,16.6739479 3.65460761,16.3530729 4.0883141,16.0763141 C4.52202058,15.7995553 5.10366494,15.661178 5.83326463,15.661178 C5.89001128,15.661178 5.99134305,15.657167 6.13726298,15.649145 C6.6398761,15.625079 7.1546415,15.6050244 7.68157461,15.5889804 C9.44882719,13.5353497 11.2971187,11.6301544 13.2265045,9.87333756 C15.1558904,8.11652066 16.825838,6.88516291 18.2363974,6.17922736 C18.4633839,6.06691943 18.6437545,6.01277178 18.7775144,6.01678277 C18.9112744,6.02079377 19.0713786,6.12307267 19.2578318,6.32362255 Z M41.4424983,22.349179 C41.0327602,22.6682277 40.6663146,22.9297099 40.3431575,23.1336289 C39.7837977,23.4865967 39.2244463,23.6630779 38.6650866,23.6630779 C38.5434866,23.6630779 38.429995,23.6510451 38.3246084,23.6269791 C37.6760754,23.5066492 37.199816,23.2720093 36.8958162,22.9230526 C36.5918163,22.5740958 36.4418453,22.1028107 36.4458986,21.509183 C36.4459784,21.4975009 36.4461256,21.4857698 36.4463404,21.4739898 C36.1468815,21.7591669 35.8001779,22.0095497 35.4062242,22.2251425 C34.8711845,22.5179453 34.2996733,22.7726398 33.6916735,22.9892337 C32.4837807,23.4304434 31.4562766,23.651045 30.6091303,23.651045 C29.7619839,23.651045 28.9979424,23.3762958 28.3169827,22.8267891 C27.9733751,22.5495118 27.7164598,22.2293445 27.5462356,21.8662844 C27.3055655,22.1114427 27.0112312,22.3754568 26.6632317,22.6583281 C25.8687787,23.3040986 25.1148703,23.6269791 24.4014839,23.6269791 C23.9637241,23.6269791 23.558397,23.4966236 23.1854905,23.2359088 C22.812584,22.975194 22.6261336,22.5199526 22.6261336,21.870171 C22.6261336,21.2203894 22.8004242,20.5826504 23.1490107,19.9569348 C21.1385582,22.4517752 19.5618359,23.6991767 18.4187964,23.6991767 C17.9648232,23.6991767 17.5980022,23.5387392 17.3183223,23.2178594 C17.0386425,22.8969796 16.8988046,22.5660773 16.8988046,22.2251425 C16.8988046,21.8842077 16.9474439,21.5312452 17.0447238,21.1662445 C17.1420038,20.8012437 17.2453622,20.4743523 17.3548021,20.1855605 C17.4642421,19.8967687 17.6263729,19.5397952 17.8411995,19.1146295 C18.0560261,18.6894638 18.2161303,18.3806216 18.3215169,18.1880937 C18.4269035,17.9955659 18.5951143,17.7047729 18.8261542,17.3157061 C19.0571941,16.9266394 19.3611894,16.4032121 19.7381492,15.7454085 C20.1151091,15.0876049 20.4272109,14.600276 20.6744641,14.2834072 C20.9217174,13.9665384 21.162887,13.8061009 21.3979802,13.8020899 C21.6330734,13.7980789 21.8397903,13.892336 22.0181369,14.0848638 C22.1964834,14.2773917 22.2856554,14.4338183 22.2856554,14.5541482 C22.2856554,14.6744781 22.0140863,15.2159547 21.4709398,16.178594 C19.8658205,19.0504682 19.0632729,20.7230291 19.0632729,21.1963268 C19.0632729,21.3166567 19.1078589,21.3768208 19.1970322,21.3768208 C19.586152,21.3768208 20.5548837,20.5425458 22.1032564,18.8739709 C23.6516291,17.2053959 24.5474019,16.1364811 24.7906018,15.6671944 C25.0338017,15.1979077 25.2709181,14.8028304 25.501958,14.4819506 C25.7329979,14.1610708 25.9052619,13.9645349 26.0187552,13.8923369 C26.3673417,13.6677211 26.8172547,13.5473929 27.3685078,13.531349 C27.4576811,13.531349 27.5265867,13.5353599 27.5752267,13.5433819 C27.6238667,13.5514039 27.6806125,13.6195898 27.7454658,13.7479417 C27.8103191,13.8762937 27.8427453,13.9765671 27.8427453,14.048765 C27.7697853,14.2733809 27.4475503,14.8710106 26.8760305,15.8416719 C26.3045107,16.8123333 25.986329,17.3618317 25.9214757,17.4901837 C24.9648894,19.4475504 24.4866035,20.7230285 24.4866035,21.3166561 C24.4866035,21.6535799 24.6163081,21.8220393 24.8757214,21.8220393 C25.3459078,21.7578633 25.9133657,21.3848461 26.5781121,20.7029766 C26.821312,20.4542947 27.0624816,20.2016057 27.3016282,19.9449018 C27.3194692,19.925751 27.3368027,19.9071917 27.3536285,19.889224 C27.4463003,19.2640218 27.6498716,18.6388223 27.9643446,18.0136162 C28.4102111,17.1271858 28.9837489,16.3490639 29.6849753,15.6792274 C30.3862016,15.0093908 31.2009091,14.4659088 32.129122,14.048765 C33.057335,13.6316213 33.9754008,13.4230526 34.8833471,13.4230526 C35.3211069,13.4230526 35.7142742,13.5473916 36.0628607,13.7960735 C36.4114472,14.0447553 36.5857378,14.385685 36.5857378,14.8188727 C36.5857378,15.2520604 36.3688879,15.7714768 35.9351814,16.3771374 C35.5014749,16.982798 35.061695,17.2856238 34.6158285,17.2856238 C34.0970021,17.2856238 33.8375927,17.0409566 33.8375927,16.5516149 C33.8375927,16.423263 33.9591909,16.1946396 34.2023908,15.8657378 C34.4455907,15.536836 34.5671888,15.314229 34.5671888,15.1979101 C34.5671888,15.0815911 34.5226028,15.0234326 34.4334295,15.0234326 C33.987563,15.0234326 33.5092771,15.1758482 32.9985573,15.480684 C32.4878375,15.7855198 32.023738,16.1063948 31.6062448,16.4433186 C31.1887517,16.7802423 30.7935578,17.1572704 30.4206513,17.5744142 C29.609985,18.4808996 29.2046579,19.4234699 29.2046579,20.4021533 C29.2046579,20.795231 29.3323359,21.1341552 29.5876958,21.418936 C29.8430557,21.7037169 30.2727024,21.8461051 30.8766488,21.8461051 C31.4805952,21.8461051 32.0865592,21.7759137 32.6945589,21.6355288 C33.3025587,21.4951439 33.8031376,21.3427283 34.1963108,21.1782774 C34.589484,21.0138265 34.9927844,20.7992413 35.4062242,20.5345155 C35.8277707,20.2697897 36.0993399,20.087292 36.2209398,19.9870171 C36.3425398,19.8867422 36.4844042,19.7684195 36.6465375,19.6320456 C36.7579383,19.5383439 36.8559432,19.4768336 36.9405534,19.4475141 C36.9537502,19.414958 36.9672109,19.3822106 36.9809357,19.3492717 C37.3335755,18.5029512 37.7774087,17.6024958 38.3124485,16.6478784 C39.1879681,15.0916114 40.0634746,13.6316302 40.9389942,12.2678911 L40.4769167,12.3280557 C39.5365438,12.4323417 38.9893522,12.4844839 38.8353256,12.4844839 L38.7258862,12.4844839 C38.490793,12.4844839 38.2638098,12.4383581 38.0449299,12.3461051 C37.82605,12.2538522 37.7166117,12.1395405 37.7166117,12.0031666 C37.7166117,11.8667926 37.7753841,11.7344317 37.8929308,11.6060798 C38.0104774,11.4777279 38.0814096,11.3774544 38.1057296,11.3052565 C38.1624762,11.1287726 38.375273,10.9322367 38.7441261,10.7156428 C39.1129793,10.4990489 39.3906284,10.3847372 39.5770816,10.3727042 C39.7635349,10.3606713 39.9439054,10.3506439 40.1181987,10.3426219 C40.2924919,10.3345999 40.4870489,10.326578 40.7018755,10.318556 C40.9167021,10.3105341 41.0808596,10.3025122 41.1943528,10.2944902 L42.2887469,10.2463585 C42.9697066,9.23558709 43.4378594,8.58581525 43.6932193,8.29702343 C43.9485792,8.00823161 44.0965236,7.84979959 44.1370569,7.82172261 C44.1775902,7.79364563 44.2586556,7.77960735 44.3802556,7.77960735 L44.9517725,7.70740975 L45.4503298,7.82773908 C45.5232897,7.82773908 45.5881421,7.86383751 45.6448887,7.93603547 C45.7016353,8.00823342 45.7300082,8.07641935 45.7300082,8.14059531 C45.7300082,8.20477127 45.6448896,8.37724158 45.4746496,8.6580114 C45.3044097,8.93878122 45.1037728,9.25765074 44.8727329,9.61462951 C44.641693,9.97160829 44.5180682,10.1661387 44.5018549,10.1982267 C45.1341746,10.1500948 45.5820611,10.1260291 45.8455276,10.1260291 C46.1089942,10.1260291 46.2893647,10.1440784 46.3866447,10.1801773 C46.4839246,10.2162763 46.5953896,10.3165497 46.7210429,10.4810006 C46.8466961,10.6454515 46.9622144,10.7697906 47.067601,10.8540215 C47.1729876,10.9382525 47.2256801,11.064597 47.2256801,11.2330589 C47.2256801,11.4015208 47.1223217,11.5439091 46.9156018,11.660228 C46.7088819,11.7765469 46.4879786,11.8467383 46.2528854,11.8708043 C44.3721395,12.0553102 43.3345022,12.1515727 43.1399423,12.1595947 C42.4833026,13.1543221 41.5652367,14.7045493 40.3857172,16.810323 C39.2061977,18.9160967 38.5799674,20.2336896 38.5070074,20.7631412 C38.4745808,21.0038011 38.4583677,21.200337 38.4583677,21.3527549 C38.4583677,21.6656127 38.6245518,21.8220393 38.956925,21.8220393 C39.2892982,21.8220393 39.6581458,21.6956947 40.063479,21.4430019 C40.4688121,21.1903091 40.8417131,20.9155599 41.1821929,20.618746 C41.4541662,20.378449 41.688314,20.1741426 41.8846366,20.0058268 C41.9129209,19.950349 41.9422383,19.8939419 41.9725886,19.8366054 C42.4184551,18.994296 42.8643149,18.2161741 43.3101814,17.5022166 C43.7560478,16.788259 43.9789777,16.4012036 43.9789777,16.3410386 C43.9789777,16.2808737 43.8958857,16.162551 43.7296991,15.9860671 C43.5635125,15.8095832 43.4804204,15.6792278 43.4804204,15.5949968 C43.4804204,15.5107659 43.6486312,15.2901643 43.9850577,14.9331856 C44.3214842,14.5762068 44.7308646,14.2232443 45.213211,13.8742875 C45.6955575,13.5253307 46.0644052,13.350855 46.319765,13.350855 C46.5751249,13.350855 46.8041347,13.4631612 47.0068013,13.6877771 C47.2094679,13.9123929 47.3107997,14.1169507 47.3107997,14.3014566 C47.3107997,14.4859625 46.3461212,16.2226984 44.4167354,19.5117163 C44.3924154,19.5598482 44.3255364,19.6661381 44.2160965,19.830589 C44.1066565,19.9950399 44.0215378,20.1314117 43.9607378,20.2397087 C43.8999379,20.3480056 43.8290056,20.4783611 43.747939,20.630779 C43.5858057,20.9516588 43.5047403,21.2203916 43.5047403,21.4369854 C43.5047403,21.7097333 43.6911908,21.8461051 44.0640973,21.8461051 C44.4370038,21.8461051 44.8240912,21.7197606 45.225371,21.4670678 C45.6266508,21.2143749 45.9732055,20.9356148 46.2650453,20.630779 C47.0270717,19.8205575 46.7798202,22.4657987 45.9124073,22.9591514 C45.0449943,23.4525041 44.2910859,23.6991767 43.6506595,23.6991767 C43.0102331,23.6991767 42.4589883,23.486597 41.9969085,23.0614313 C41.7415393,22.8264627 41.5567363,22.589046 41.4424983,22.349179 Z M18.4066364,8.02026599 C17.3770902,10.1140067 16.1246295,12.6970503 14.6492168,15.7694744 C13.1819108,15.6812324 11.7308398,15.6210683 10.2959604,15.5889804 C12.7441727,12.7652382 15.4477044,10.2423586 18.4066364,8.02026599 Z M49.8522259,9.99366688 C49.8522259,10.4509206 49.6374025,10.9101729 49.2077494,11.3714376 C48.7780962,11.8327023 48.3302098,12.0633312 47.8640767,12.0633312 C47.3979435,12.0633312 47.1648805,11.822675 47.1648805,11.3413553 C47.1648805,10.8600356 47.3695706,10.4007833 47.7789571,9.96358455 C48.1883436,9.52638582 48.6402833,9.30778974 49.1347898,9.30778974 C49.3536697,9.30778974 49.5279603,9.3679538 49.6576669,9.48828372 C49.7873736,9.60861365 49.8522259,9.77707301 49.8522259,9.99366688 Z M55.2390767,14.0367321 C55.4822766,14.0367321 55.7315527,14.1450274 55.9869126,14.3616213 C56.2422725,14.5782151 56.3699505,14.9091175 56.3699505,15.3543382 C56.3699505,15.7995589 56.211873,16.3771339 55.8957131,17.0870804 C55.5795532,17.797027 55.1458533,18.5189957 54.5946002,19.2530082 C54.0433471,19.9870208 53.4373831,20.676902 52.77669,21.3226726 C52.115997,21.9684432 51.4026213,22.4978869 50.6365416,22.9110196 C49.870462,23.3241524 49.175326,23.5307156 48.5511129,23.5307156 C47.9268999,23.5307156 47.4263209,23.3361852 47.0493611,22.9471184 C46.6724012,22.5580517 46.4839242,22.0165751 46.4839242,21.3226726 C46.4839242,20.62877 46.6561882,19.8606755 47.0007214,19.0183661 C47.3452545,18.1760566 47.7890877,17.4320277 48.3322341,16.7862571 C48.8753806,16.1404865 49.4631048,15.5609061 50.0954246,15.0474984 C51.4168107,13.9966171 52.5760461,13.4711843 53.5731657,13.4711843 C54.0190322,13.4711843 54.3554537,13.5794796 54.5824402,13.7960735 C54.6635069,13.8682714 54.7040396,13.9324464 54.7040396,13.9886004 L54.7040396,14.060798 C54.8175329,14.044754 54.9958768,14.0367321 55.2390767,14.0367321 Z M54.0109233,15.6371121 L53.9258038,15.6371121 C53.6420706,15.6371121 53.5002061,15.4325543 53.5002061,15.0234326 C52.9084197,15.2159604 52.2882692,15.5528792 51.6397362,16.0341989 C50.9912031,16.5155186 50.4115854,17.0850717 49.9008656,17.7428752 C48.8632127,19.0584824 48.3362875,20.169512 48.3200742,21.0759975 C48.3200742,21.5252292 48.4862583,21.7498417 48.8186315,21.7498417 C49.1510047,21.7498417 49.6455037,21.5332511 50.3021434,21.1000633 C50.9587832,20.6668756 51.6093331,20.0491913 52.2538129,19.2469918 C52.8982926,18.4447923 53.3806318,17.7488947 53.700845,17.159278 C54.0210582,16.5696614 54.1811624,16.1685677 54.1811624,15.9559848 C54.1811624,15.7434019 54.1244166,15.6371121 54.0109233,15.6371121 Z M62.4499176,21.3527549 C62.4499176,21.7057227 62.6931138,21.8822039 63.1795136,21.8822039 C63.4389268,21.8822039 63.7652151,21.7538539 64.1583883,21.4971501 C64.5515615,21.2404463 64.9062227,20.9596806 65.2223825,20.6548448 C66.0654755,19.8285794 66.5437615,19.4154528 66.6572547,19.4154528 C66.868028,19.4154528 66.973413,19.7162731 66.973413,20.3179227 C66.973413,20.9195724 66.7829093,21.3326989 66.4018961,21.5573148 C65.2426433,22.5921521 64.3468704,23.2218693 63.7145507,23.4464851 C63.3578575,23.566815 62.9646902,23.6229682 62.5350371,23.6149462 C62.1053839,23.6069242 61.6797905,23.4224211 61.258244,23.0614313 C60.8366975,22.7004415 60.6259275,22.2612439 60.6259275,21.7438252 C60.6259275,21.2264065 60.7637387,20.6388042 61.0393652,19.9810006 C61.3149918,19.323197 61.5966941,18.7596604 61.8844806,18.2903737 C62.1722672,17.821087 62.5269284,17.2755995 62.9484749,16.6538949 C63.3700213,16.0321903 63.5929512,15.6451348 63.6172712,15.4927169 L63.5929514,15.468651 C63.3254315,15.492717 62.6627217,16.0141389 61.6048021,17.0329322 C60.5468826,18.0517256 59.6734027,18.9381427 58.9843364,19.6922103 C58.29527,20.4462778 57.472456,21.453023 56.5158697,22.7124763 C56.2483499,23.057422 56.0294732,23.2298923 55.8592333,23.2298923 C55.6889934,23.2298923 55.4599836,23.1757447 55.172197,23.0674478 C54.8844105,22.9591508 54.7080932,22.8809375 54.6432399,22.8328056 C54.5783866,22.7846736 54.5459604,22.7124767 54.5459604,22.6162128 C54.5459604,22.5199489 54.5743333,22.4016262 54.63108,22.2612413 C54.6878266,22.1208564 54.7425458,22.0045392 54.7952391,21.9122863 C54.8479324,21.8200333 54.9350777,21.677645 55.0566777,21.4851172 C55.1782776,21.2925893 55.4194472,20.8854791 55.7801937,20.2637745 C56.1409402,19.6420699 56.6942117,18.7135379 57.4400247,17.4781507 C58.1858377,16.2427635 58.6316975,15.4967292 58.7776175,15.2400253 C59.0856707,14.7105737 59.3369735,14.3255237 59.5315334,14.0848638 C59.8963332,13.6276101 60.5124304,13.3989867 61.3798434,13.3989867 C61.5744033,13.3989867 61.6716818,13.5193148 61.6716818,13.7599747 C61.6716818,14.1370084 61.3190472,14.8469443 60.6137675,15.8898037 L60.1030503,16.6478784 C61.505503,15.1076554 62.6890581,14.1329976 63.653751,13.7238759 C64.1239375,13.523326 64.5475043,13.4230526 64.9244641,13.4230526 C65.301424,13.4230526 65.601366,13.523326 65.8242993,13.7238759 C66.0472325,13.9244257 66.1586974,14.1470328 66.1586974,14.3917036 C66.1586974,14.6363745 66.0735788,14.9291729 65.9033388,15.2701077 C65.7330989,15.6110424 65.5608349,15.9158737 65.3865416,16.1846105 C65.2122484,16.4533473 64.9832386,16.7922715 64.6995054,17.2013933 C64.4157721,17.610515 64.2617479,17.833122 64.2374279,17.869221 C64.2131079,17.90532 64.1502822,18.0015825 64.0489489,18.1580114 C63.9476156,18.3144403 63.8726301,18.428752 63.8239901,18.50095 C63.7753501,18.5731479 63.6942847,18.6994924 63.5807914,18.8799873 C63.4672981,19.0604822 63.3760995,19.2108924 63.3071929,19.3312223 C63.2382863,19.4515522 63.1531676,19.5999569 63.0518343,19.7764408 C62.950501,19.9529247 62.8694356,20.1053403 62.8086356,20.2336922 C62.7478356,20.3620441 62.6850099,20.5024269 62.6201566,20.6548448 C62.5066634,20.9356147 62.4499176,21.168249 62.4499176,21.3527549 Z M94.4940323,22.5042652 C94.453278,22.5375433 94.4118487,22.5708482 94.3697444,22.6041799 C93.4780115,23.3020934 92.5660255,23.651045 91.6337593,23.651045 C90.2961598,23.651045 89.6273702,23.0654481 89.6273702,21.8942369 C89.6273702,20.8754435 90.523143,18.8459092 92.3147156,15.8055731 C92.3795689,15.6932652 92.4241549,15.6130465 92.4484749,15.5649145 C91.8242618,15.9981022 90.6305735,17.1793233 88.8673743,19.108613 C87.104175,21.0379028 85.9307531,22.403627 85.3470734,23.2058265 C85.2984334,23.2780244 85.1768353,23.3582432 84.9822754,23.4464851 C84.7877154,23.5347271 84.6357178,23.5788474 84.5262778,23.5788474 C84.4168379,23.5788474 84.299293,23.5447544 84.1736397,23.4765674 C84.0479865,23.4083805 83.9689477,23.3742875 83.936521,23.3742875 C83.8311344,23.3742875 83.7784419,23.3401946 83.7784419,23.2720076 C83.7784419,23.2038206 83.922333,22.8348144 84.2101195,22.1649778 C84.4979061,21.4951413 84.8768869,20.6628718 85.3470734,19.6681444 C86.6360328,16.9246221 88.5532299,13.3548879 91.0987222,8.95883471 C91.9904551,7.41861168 92.6876177,6.32763673 93.1902308,5.68587714 C93.546924,5.22862343 94.1468081,5 94.9899011,5 C95.1682477,5 95.2695794,5.05214218 95.2938994,5.15642812 C95.3182194,5.26071405 95.3303792,5.3730203 95.3303792,5.49335022 C95.3303792,5.61368015 95.3060596,5.73400826 95.2574196,5.85433819 L93.9563067,7.86383787 C91.3783878,11.8427474 89.436871,15.1397378 88.1316983,17.7549082 C89.3963377,16.2307291 90.6244788,15.0555245 91.8161583,14.229259 C92.5538646,13.7078294 93.1071361,13.4471184 93.4759893,13.4471184 C93.8448425,13.4471184 94.1792373,13.505277 94.4791838,13.6215959 C94.7791304,13.7379149 94.9291014,14.016675 94.9291014,14.4578847 C94.9291014,14.6183246 94.6656388,15.2119434 94.1387057,16.2387587 C92.5579064,19.3192048 91.7675185,21.0298695 91.7675185,21.3708043 C91.7675185,21.7117391 91.909383,21.8822039 92.1931162,21.8822039 C92.6065561,21.8822039 93.2429196,21.4851211 94.1022259,20.6909436 C94.1882826,20.6111081 94.2701283,20.5350864 94.3477631,20.4628786 C94.4278147,20.0408772 94.5628208,19.6175336 94.7527824,19.1928436 C95.0811022,18.458831 95.5127756,17.7890045 96.0478153,17.1833439 C96.5828551,16.5776833 97.1705794,16.0261794 97.8110058,15.5288157 C99.1567119,14.4859564 100.397013,13.9645345 101.531946,13.9645345 C101.969705,13.9645345 102.326393,14.0367314 102.60202,14.1811273 C102.877646,14.3255232 103.051937,14.5060154 103.124897,14.7226092 C103.319457,14.4338174 103.483614,14.2513198 103.617374,14.1751108 C103.751134,14.0989019 103.951771,14.060798 104.219291,14.060798 C104.835397,14.060798 105.143446,14.2693667 105.143446,14.6865104 C105.143446,14.9111263 105.090753,15.0755747 104.985367,15.1798607 C104.87998,15.2841466 104.655024,15.6310927 104.310491,16.2207093 C103.965957,16.8103259 103.58495,17.5643822 103.167457,18.4829006 C102.749964,19.401419 102.480421,20.1855572 102.358821,20.8353388 C102.334501,20.9155588 102.322341,21.027865 102.322341,21.1722609 C102.322341,21.6134706 102.443939,21.8340722 102.687139,21.8340722 C102.930339,21.8340722 103.218121,21.7197605 103.550495,21.4911336 C103.882868,21.2625068 103.041807,23.6269791 102.389221,23.6269791 C101.736635,23.6269791 101.256322,23.4304432 100.948269,23.0373654 C100.640216,22.6442877 100.486191,22.209101 100.486191,21.7317923 C100.486191,21.2544836 100.567257,20.8353406 100.72939,20.4743509 C100.056537,21.3407263 99.2843888,22.0747278 98.4129225,22.6763775 C97.5414562,23.2780271 96.8301072,23.5788474 96.2788541,23.5788474 C95.727601,23.5788474 95.2776879,23.4143989 94.9291014,23.0854972 C94.7468156,22.9182338 94.6017927,22.7244903 94.4940323,22.5042652 Z M84.3256389,16.190627 C84.5201988,16.190627 84.6174773,16.3450481 84.6174773,16.6538949 C84.6174773,16.9627417 84.5485717,17.4941909 84.4107585,18.2482584 C84.3053718,18.7536441 83.7217008,19.4756128 82.6597279,20.4141862 C81.3788752,21.5372655 79.9723902,22.3394529 78.4402308,22.8207726 C77.5160712,23.1095645 76.6142185,23.2539582 75.7346455,23.2539582 C74.8550725,23.2539582 74.0525249,22.8869574 73.3269786,22.1529449 C72.6014322,21.4189324 72.2386645,20.548559 72.2386645,19.5417986 C72.2386645,18.5350382 72.4433546,17.4921945 72.8527411,16.4132362 C73.2621276,15.3342779 73.8133725,14.303467 74.5064922,13.3207726 C75.1996119,12.3380783 76.0183726,11.3935025 76.9627988,10.4870171 C77.9072251,9.58053167 78.8901433,8.79438796 79.9115829,8.12856238 C80.9330224,7.4627368 82.0030859,6.93329308 83.1218054,6.54021533 C84.240525,6.14713757 85.3024819,5.95060165 86.3077082,5.95060165 C87.1021612,5.95060165 87.7790574,6.2353782 88.3384171,6.80493984 C88.630257,7.10977564 88.7761748,7.49282016 88.7761748,7.95408486 C88.7761748,8.41534957 88.5491916,8.99693548 88.0952185,9.69886004 C87.6412453,10.4007846 87.1041869,11.0405291 86.4840272,11.6181127 C85.8638675,12.1956964 85.2234507,12.6850307 84.5627576,13.0861305 C83.9020646,13.4872302 83.3731127,13.6877771 82.9758862,13.6877771 C82.5786597,13.6877771 82.238185,13.5654435 81.9544518,13.3207726 C81.6707186,13.0761018 81.5288541,12.8575057 81.5288541,12.6649778 C81.5288541,12.47245 81.5714134,12.2598703 81.6565334,12.0272324 C81.7416534,11.7945946 81.849065,11.6782774 81.9787716,11.6782774 C81.946345,11.7183874 81.9301319,11.7584967 81.9301319,11.7986067 C81.9301319,11.8948707 82.0699697,11.9430019 82.3496496,11.9430019 C82.6293295,11.9430019 83.0974823,11.6983347 83.754122,11.208993 C84.4107617,10.7196513 85.0045659,10.1701529 85.5355523,9.56048132 C86.0665388,8.9508097 86.332028,8.49356285 86.332028,8.18872704 C86.332028,7.98015517 86.1901636,7.8758708 85.9064303,7.8758708 C85.144404,7.8758708 84.0925802,8.22682782 82.7509275,8.92875237 C81.4092747,9.63067693 80.1264145,10.5351433 78.9023083,11.6421786 C77.6782022,12.7492139 76.6142186,14.0627959 75.7103256,15.5829639 C74.8064327,17.1031319 74.354493,18.4688561 74.354493,19.6801773 C74.354493,20.185563 74.4902776,20.5906677 74.7618508,20.8955035 C75.033424,21.2003393 75.4509109,21.3527549 76.014324,21.3527549 C76.5777371,21.3527549 77.2445001,21.1923174 78.0146331,20.8714376 C78.7847661,20.5505578 79.5163815,20.157486 80.2095012,19.6922103 C80.9026209,19.2269346 81.5572242,18.749633 82.1733306,18.2602913 C82.789437,17.7709496 83.2819094,17.3417793 83.6507626,16.9727676 C84.0196157,16.6037558 84.2080928,16.3811488 84.2161995,16.3049398 C84.2243062,16.2287309 84.2607856,16.190627 84.3256389,16.190627 Z M102.60202,15.3964535 C101.21578,15.3964535 99.7809225,16.1585315 98.2974031,17.6827106 C97.77047,18.2282062 97.2861042,18.881989 96.844291,19.6440785 C96.4024779,20.406168 96.1815746,20.9275899 96.1815746,21.2083597 C96.1815746,21.4891295 96.26264,21.6295123 96.4247733,21.6295123 C96.6517599,21.6295123 97.2840701,21.1863038 98.321723,20.2998733 C99.3593759,19.4134429 100.048432,18.7616656 100.388912,18.3445218 C100.761818,17.8792461 101.499514,16.8965665 102.60202,15.3964535 Z M109.002158,22.9911878 C108.158588,23.4631827 107.423608,23.6991767 106.797197,23.6991767 C106.156771,23.6991767 105.605526,23.486597 105.143446,23.0614313 C104.681366,22.6362656 104.45033,22.2030843 104.45033,21.7618746 C104.45033,21.3206649 104.67326,20.6789149 105.119126,19.8366054 C105.564993,18.994296 106.010852,18.2161741 106.456719,17.5022166 C106.902585,16.788259 107.125515,16.4012036 107.125515,16.3410386 C107.125515,16.2808737 107.042423,16.162551 106.876237,15.9860671 C106.71005,15.8095832 106.626958,15.6792278 106.626958,15.5949968 C106.626958,15.5107659 106.795169,15.2901643 107.131595,14.9331856 C107.468022,14.5762068 107.877402,14.2232443 108.359749,13.8742875 C108.842095,13.5253307 109.210943,13.350855 109.466303,13.350855 C109.721662,13.350855 109.950672,13.4631612 110.153339,13.6877771 C110.356005,13.9123929 110.457337,14.1169507 110.457337,14.3014566 C110.457337,14.4859625 109.492659,16.2226984 107.563273,19.5117163 C107.538953,19.5598482 107.472074,19.6661381 107.362634,19.830589 C107.253194,19.9950399 107.168075,20.1314117 107.107275,20.2397087 C107.046475,20.3480056 106.975543,20.4783611 106.894477,20.630779 C106.732343,20.9516588 106.651278,21.2203916 106.651278,21.4369854 C106.651278,21.7097333 106.837728,21.8461051 107.210635,21.8461051 C107.583541,21.8461051 107.970629,21.7197606 108.371908,21.4670678 C108.773188,21.2143749 109.119743,20.9356148 109.411583,20.630779 C109.582571,20.4489763 109.737029,20.287571 109.874955,20.1465629 C110.235751,19.5276332 110.766299,18.6381702 111.466612,17.4781507 C112.212425,16.2427635 112.658285,15.4967292 112.804204,15.2400253 C113.112258,14.7105737 113.36356,14.3255237 113.55812,14.0848638 C113.92292,13.6276101 114.539017,13.3989867 115.40643,13.3989867 C115.60099,13.3989867 115.698269,13.5193148 115.698269,13.7599747 C115.698269,14.1370084 115.345634,14.8469443 114.640354,15.8898037 L114.129637,16.6478784 C115.53209,15.1076554 116.715645,14.1329976 117.680338,13.7238759 C118.150524,13.523326 118.574091,13.4230526 118.951051,13.4230526 C119.328011,13.4230526 119.627953,13.523326 119.850886,13.7238759 C120.073819,13.9244257 120.185284,14.1470328 120.185284,14.3917036 C120.185284,14.6363745 120.100166,14.9291729 119.929926,15.2701077 C119.759686,15.6110424 119.587422,15.9158737 119.413129,16.1846105 C119.238835,16.4533473 119.009826,16.7922715 118.726092,17.2013933 C118.442359,17.610515 118.288335,17.833122 118.264015,17.869221 C118.239695,17.90532 118.176869,18.0015825 118.075536,18.1580114 C117.974203,18.3144403 117.899217,18.428752 117.850577,18.50095 C117.801937,18.5731479 117.720872,18.6994924 117.607378,18.8799873 C117.493885,19.0604822 117.402687,19.2108924 117.33378,19.3312223 C117.264873,19.4515522 117.179755,19.5999569 117.078421,19.7764408 C116.977088,19.9529247 116.896023,20.1053403 116.835223,20.2336922 C116.774423,20.3620441 116.711597,20.5024269 116.646744,20.6548448 C116.53325,20.9356147 116.476505,21.168249 116.476505,21.3527549 C116.476505,21.7057227 116.719701,21.8822039 117.206101,21.8822039 C117.465514,21.8822039 117.791802,21.7538539 118.184975,21.4971501 C118.578148,21.2404463 118.93281,20.9596806 119.248969,20.6548448 C120.092062,19.8285794 120.570348,19.4154528 120.683842,19.4154528 C120.894615,19.4154528 121,19.7162731 121,20.3179227 C121,20.9195724 120.809496,21.3326989 120.428483,21.5573148 C119.26923,22.5921521 118.373457,23.2218693 117.741138,23.4464851 C117.384444,23.566815 116.991277,23.6229682 116.561624,23.6149462 C116.131971,23.6069242 115.706377,23.4224211 115.284831,23.0614313 C114.863285,22.7004415 114.652514,22.2612439 114.652514,21.7438252 C114.652514,21.2264065 114.790326,20.6388042 115.065952,19.9810006 C115.341579,19.323197 115.623281,18.7596604 115.911068,18.2903737 C116.198854,17.821087 116.553515,17.2755995 116.975062,16.6538949 C117.396608,16.0321903 117.619538,15.6451348 117.643858,15.4927169 L117.619538,15.468651 C117.352018,15.492717 116.689309,16.0141389 115.631389,17.0329322 C114.57347,18.0517256 113.69999,18.9381427 113.010923,19.6922103 C112.321857,20.4462778 111.499043,21.453023 110.542457,22.7124763 C110.274937,23.057422 110.05606,23.2298923 109.88582,23.2298923 C109.71558,23.2298923 109.486571,23.1757447 109.198784,23.0674478 C109.126139,23.0401109 109.060598,23.0146909 109.002158,22.9911878 Z M112.998763,9.99366688 C112.998763,10.4509206 112.78394,10.9101729 112.354287,11.3714376 C111.924634,11.8327023 111.476747,12.0633312 111.010614,12.0633312 C110.544481,12.0633312 110.311418,11.822675 110.311418,11.3413553 C110.311418,10.8600356 110.516108,10.4007833 110.925495,9.96358455 C111.334881,9.52638582 111.786821,9.30778974 112.281327,9.30778974 C112.500207,9.30778974 112.674498,9.3679538 112.804204,9.48828372 C112.933911,9.60861365 112.998763,9.77707301 112.998763,9.99366688 Z" id="Auction-Chain" fill="#4A4A4A"></path>
    </g>
</svg>